<svg xmlns="http://www.w3.org/2000/svg" viewBox="0 0 420 420">
  <defs>
    <linearGradient id="stem" x1="0" y1="0" x2="0" y2="1">
      <stop offset="0" stop-color="#b7ca82" stop-opacity=".55"/>
      <stop offset="1" stop-color="#405a2f" stop-opacity=".72"/>
    </linearGradient>
    <radialGradient id="puff" cx=".45" cy=".45" r=".65">
      <stop offset="0" stop-color="#fffdf1" stop-opacity=".95"/>
      <stop offset=".58" stop-color="#fff5ce" stop-opacity=".54"/>
      <stop offset="1" stop-color="#fff5ce" stop-opacity="0"/>
    </radialGradient>
  </defs>
  <g fill="none" stroke-linecap="round">
    <path d="M49 420 C88 314 116 204 138 89" stroke="url(#stem)" stroke-width="3"/>
    <path d="M106 420 C137 318 176 209 236 105" stroke="url(#stem)" stroke-width="2.4" opacity=".82"/>
    <path d="M14 420 C48 342 78 282 109 212" stroke="url(#stem)" stroke-width="2" opacity=".62"/>
    <path d="M172 420 C181 340 189 264 188 190" stroke="url(#stem)" stroke-width="1.8" opacity=".55"/>
  </g>
  <g opacity=".9">
    <circle cx="139" cy="86" r="45" fill="url(#puff)"/>
    <circle cx="237" cy="102" r="34" fill="url(#puff)" opacity=".78"/>
    <circle cx="109" cy="209" r="21" fill="url(#puff)" opacity=".45"/>
  </g>
  <g stroke="#fff9df" stroke-width="1.2" stroke-linecap="round" opacity=".72">
    <path d="M139 86 L139 36 M139 86 L108 48 M139 86 L174 52 M139 86 L91 85 M139 86 L188 87 M139 86 L108 124 M139 86 L171 124"/>
    <path d="M237 102 L238 66 M237 102 L215 75 M237 102 L265 79 M237 102 L201 101 M237 102 L272 105 M237 102 L216 130 M237 102 L264 129"/>
  </g>
  <g stroke="#9eb66c" stroke-width="1.2" stroke-linecap="round" opacity=".42">
    <path d="M0 400 C32 370 73 356 118 362"/>
    <path d="M25 390 C63 383 99 393 137 420"/>
    <path d="M86 420 C119 383 150 369 193 374"/>
  </g>
</svg>
