<svg xmlns="http://www.w3.org/2000/svg" viewBox="0 0 900 90" preserveAspectRatio="none">
  <defs>
    <linearGradient id="line" x1="0" y1="0" x2="1" y2="0">
      <stop offset="0" stop-color="#5f7b3f" stop-opacity="0"/>
      <stop offset=".2" stop-color="#8aa461" stop-opacity=".55"/>
      <stop offset=".78" stop-color="#fff3c2" stop-opacity=".36"/>
      <stop offset="1" stop-color="#5f7b3f" stop-opacity="0"/>
    </linearGradient>
  </defs>
  <path d="M0 55 C145 43 246 64 384 52 C532 39 658 58 900 44" fill="none" stroke="url(#line)" stroke-width="1"/>
  <g fill="none" stroke-linecap="round" opacity=".42">
    <path d="M96 58 C101 44 106 31 115 18" stroke="#88a760" stroke-width="1.4"/>
    <path d="M109 60 C114 48 120 39 131 30" stroke="#c4d38c" stroke-width="1"/>
    <path d="M726 51 C731 38 739 26 751 14" stroke="#88a760" stroke-width="1.3"/>
    <path d="M744 53 C751 44 759 38 771 32" stroke="#d9e3a8" stroke-width="1"/>
    <path d="M492 55 C498 42 503 31 512 20" stroke="#7e9a55" stroke-width="1.1"/>
  </g>
  <g fill="#fff8d7" opacity=".5">
    <circle cx="138" cy="28" r="2.8"/>
    <circle cx="776" cy="31" r="2.5"/>
    <circle cx="517" cy="20" r="2"/>
  </g>
</svg>
