<svg xmlns="http://www.w3.org/2000/svg" width="1200" height="1200" viewBox="0 0 1200 1200" role="img" aria-label="01KhoảngLặng playlist cover">
  <defs>
    <linearGradient id="night" x1="0" y1="0" x2="1" y2="1">
      <stop offset="0%" stop-color="#08070e"/>
      <stop offset="42%" stop-color="#20122d"/>
      <stop offset="76%" stop-color="#42193a"/>
      <stop offset="100%" stop-color="#09080e"/>
    </linearGradient>
    <radialGradient id="lamp" cx="28%" cy="39%" r="44%">
      <stop offset="0%" stop-color="#ffc978" stop-opacity=".42"/>
      <stop offset="42%" stop-color="#c56a45" stop-opacity=".16"/>
      <stop offset="100%" stop-color="#08070e" stop-opacity="0"/>
    </radialGradient>
    <radialGradient id="neon" cx="70%" cy="24%" r="58%">
      <stop offset="0%" stop-color="#eb5cc4" stop-opacity=".36"/>
      <stop offset="42%" stop-color="#6d3df2" stop-opacity=".13"/>
      <stop offset="100%" stop-color="#08070e" stop-opacity="0"/>
    </radialGradient>
    <linearGradient id="windowGlow" x1="0" y1="0" x2="0" y2="1">
      <stop offset="0%" stop-color="#6248ff" stop-opacity=".55"/>
      <stop offset="55%" stop-color="#d84fa8" stop-opacity=".26"/>
      <stop offset="100%" stop-color="#f49a55" stop-opacity=".14"/>
    </linearGradient>
    <linearGradient id="floor" x1="0" y1="0" x2="1" y2="0">
      <stop offset="0%" stop-color="#120b16"/>
      <stop offset="52%" stop-color="#2a1628"/>
      <stop offset="100%" stop-color="#07060b"/>
    </linearGradient>
    <filter id="soft" x="-30%" y="-30%" width="160%" height="160%">
      <feGaussianBlur stdDeviation="18"/>
    </filter>
    <filter id="glow" x="-40%" y="-40%" width="180%" height="180%">
      <feGaussianBlur stdDeviation="7" result="blur"/>
      <feMerge>
        <feMergeNode in="blur"/>
        <feMergeNode in="SourceGraphic"/>
      </feMerge>
    </filter>
    <pattern id="rain" width="70" height="70" patternUnits="userSpaceOnUse" patternTransform="rotate(12)">
      <line x1="12" y1="0" x2="12" y2="46" stroke="#f7daf3" stroke-width="2" stroke-opacity=".12"/>
      <line x1="42" y1="18" x2="42" y2="70" stroke="#ffd394" stroke-width="1.2" stroke-opacity=".09"/>
      <line x1="62" y1="4" x2="62" y2="42" stroke="#8d7dff" stroke-width="1.4" stroke-opacity=".12"/>
    </pattern>
  </defs>

  <rect width="1200" height="1200" fill="url(#night)"/>
  <rect width="1200" height="1200" fill="url(#neon)"/>
  <rect width="1200" height="1200" fill="url(#lamp)"/>

  <g opacity=".82">
    <rect x="305" y="118" width="660" height="620" rx="18" fill="#0b0b14" stroke="#d9b06a" stroke-opacity=".18"/>
    <rect x="334" y="148" width="602" height="558" rx="8" fill="url(#windowGlow)" opacity=".52"/>
    <rect x="334" y="148" width="602" height="558" rx="8" fill="url(#rain)"/>
    <path d="M635 148v558M334 428h602" stroke="#0b0710" stroke-width="16" opacity=".72"/>
    <g opacity=".45">
      <rect x="382" y="310" width="70" height="180" fill="#120c18"/>
      <rect x="472" y="245" width="86" height="245" fill="#160e1d"/>
      <rect x="706" y="270" width="92" height="260" fill="#110b18"/>
      <rect x="818" y="205" width="58" height="310" fill="#130c1a"/>
      <rect x="408" y="342" width="30" height="12" fill="#f68d55" opacity=".7"/>
      <rect x="502" y="286" width="36" height="12" fill="#de53b0" opacity=".8"/>
      <rect x="742" y="328" width="30" height="12" fill="#f4bf65" opacity=".6"/>
      <rect x="838" y="244" width="22" height="70" fill="#9649ff" opacity=".35"/>
    </g>
    <text x="650" y="370" text-anchor="middle" font-family="Inter, Arial, sans-serif" font-size="34" font-weight="500" fill="#ffd5ef" filter="url(#glow)">khoảng</text>
    <text x="650" y="410" text-anchor="middle" font-family="Inter, Arial, sans-serif" font-size="34" font-weight="500" fill="#ffd5ef" filter="url(#glow)">lặng</text>
  </g>

  <rect x="0" y="704" width="1200" height="496" fill="url(#floor)" opacity=".88"/>

  <g transform="translate(70 580)" opacity=".9">
    <rect x="0" y="82" width="370" height="170" rx="16" fill="#07050a"/>
    <rect x="18" y="120" width="334" height="58" rx="6" fill="#f1e5d3" opacity=".86"/>
    <g opacity=".8">
      <rect x="31" y="126" width="18" height="52" fill="#100b12"/>
      <rect x="74" y="126" width="18" height="52" fill="#100b12"/>
      <rect x="118" y="126" width="18" height="52" fill="#100b12"/>
      <rect x="162" y="126" width="18" height="52" fill="#100b12"/>
      <rect x="205" y="126" width="18" height="52" fill="#100b12"/>
      <rect x="250" y="126" width="18" height="52" fill="#100b12"/>
      <rect x="294" y="126" width="18" height="52" fill="#100b12"/>
    </g>
    <path d="M25 88h300c32 0 48-20 52-62" fill="none" stroke="#1c1420" stroke-width="22" stroke-linecap="round"/>
    <circle cx="76" cy="42" r="44" fill="#ffb35c" opacity=".16" filter="url(#soft)"/>
  </g>

  <g transform="translate(820 690)" opacity=".72">
    <ellipse cx="118" cy="162" rx="154" ry="42" fill="#000" opacity=".4"/>
    <rect x="16" y="28" width="235" height="143" rx="42" fill="#120d17"/>
    <path d="M62 44c48 52 106 69 176 38" fill="none" stroke="#5d4357" stroke-width="20" stroke-linecap="round" opacity=".56"/>
  </g>

  <g transform="translate(705 770)" opacity=".84">
    <ellipse cx="118" cy="55" rx="118" ry="38" fill="#0d0810" stroke="#b47a62" stroke-opacity=".28"/>
    <ellipse cx="118" cy="55" rx="46" ry="14" fill="#5a2c32" opacity=".58"/>
    <rect x="103" y="0" width="32" height="62" rx="6" fill="#100b12" stroke="#e7a166" stroke-opacity=".22"/>
    <rect x="150" y="22" width="72" height="18" rx="3" fill="#d9c7a5" opacity=".55" transform="rotate(-8 150 22)"/>
  </g>

  <g transform="translate(72 914)" opacity=".82">
    <ellipse cx="145" cy="75" rx="142" ry="42" fill="#0a0508"/>
    <circle cx="132" cy="56" r="86" fill="#110a0d" stroke="#c88d54" stroke-opacity=".2" stroke-width="3"/>
    <circle cx="132" cy="56" r="44" fill="none" stroke="#f2a25e" stroke-opacity=".18"/>
    <circle cx="132" cy="56" r="10" fill="#f7be77" opacity=".75"/>
    <path d="M223 25l64-24" stroke="#d9b06a" stroke-opacity=".42" stroke-width="7" stroke-linecap="round"/>
  </g>

  <g opacity=".55">
    <path d="M214 600c-32-96 3-167 66-192-15 69 9 122 63 163-58-7-96 5-129 29z" fill="#152018"/>
    <path d="M250 625c55-94 130-114 202-89-60 39-85 88-77 156-37-50-75-66-125-67z" fill="#172519"/>
    <path d="M940 570c40-82 113-104 164-75-54 23-76 63-74 120-25-39-56-50-90-45z" fill="#132019"/>
  </g>

  <rect width="1200" height="1200" fill="#000" opacity=".17"/>
  <path d="M0 0h1200v1200H0z" fill="none" stroke="#d9b06a" stroke-opacity=".12" stroke-width="3"/>

  <g>
    <text x="600" y="916" text-anchor="middle" font-family="Cormorant Garamond, Georgia, serif" font-size="126" font-weight="300" fill="#f7d2c2" letter-spacing="-7">01KhoảngLặng</text>
    <line x1="238" y1="946" x2="962" y2="946" stroke="#d9b06a" stroke-opacity=".22"/>
    <text x="600" y="1005" text-anchor="middle" font-family="Cormorant Garamond, Georgia, serif" font-size="44" font-weight="300" fill="#eec8b9" letter-spacing="8">Cái Sạp Nhạc của Li</text>
    <text x="600" y="1110" text-anchor="middle" font-family="Inter, Arial, sans-serif" font-size="20" fill="#b88f86" letter-spacing="10">LO-FI HIP-HOP • VIETNAMESE R&amp;B • CINEMATIC SOUL</text>
  </g>
</svg>
